# Blender v2.91.0 OBJ File: 'rt_scene.blend'
# www.blender.org
o Cube.001_Cube.002
v 0.012694 -0.052070 -0.972023
v 0.012694 1.010362 -0.972023
v 0.673818 -0.052070 -1.803695
v 0.673818 1.010362 -1.803695
v 0.844366 -0.052070 -0.310899
v 0.844366 1.010362 -0.310899
v 1.505490 -0.052070 -1.142571
v 1.505490 1.010362 -1.142571
vt 0.625000 0.000000
vt 0.375000 0.250000
vt 0.375000 0.000000
vt 0.625000 0.250000
vt 0.375000 0.500000
vt 0.625000 0.500000
vt 0.375000 0.750000
vt 0.625000 0.750000
vt 0.375000 1.000000
vt 0.125000 0.750000
vt 0.125000 0.500000
vt 0.875000 0.500000
vt 0.625000 1.000000
vt 0.875000 0.750000
vn -0.7828 0.0000 -0.6223
vn 0.6223 0.0000 -0.7828
vn 0.7828 0.0000 0.6223
vn -0.6223 0.0000 0.7828
vn 0.0000 -1.0000 -0.0000
vn 0.0000 1.0000 0.0000
s off
f 2/1/1 3/2/1 1/3/1
f 4/4/2 7/5/2 3/2/2
f 8/6/3 5/7/3 7/5/3
f 6/8/4 1/9/4 5/7/4
f 7/5/5 1/10/5 3/11/5
f 4/12/6 6/8/6 8/6/6
f 2/1/1 4/4/1 3/2/1
f 4/4/2 8/6/2 7/5/2
f 8/6/3 6/8/3 5/7/3
f 6/8/4 2/13/4 1/9/4
f 7/5/5 5/7/5 1/10/5
f 4/12/6 2/14/6 6/8/6
