# Blender v2.91.0 OBJ File: 'rt_scene.blend'
# www.blender.org
o ceil_Cube.004
v -1.573951 3.086003 0.149445
v -1.573951 3.086003 -2.998457
v 1.573951 3.086003 0.149445
v 1.573951 3.086003 -2.998457
v -0.524650 3.086003 -2.998457
v 0.524650 3.086003 -2.998457
v 0.524650 3.086003 0.149445
v -0.524650 3.086003 0.149445
v -1.573951 3.086003 -0.899856
v -1.573951 3.086003 -1.949157
v 1.573951 3.086003 -1.949157
v 1.573951 3.086003 -0.899856
v 0.524650 3.086003 -0.899856
v 0.524650 3.086003 -1.949157
v -0.524650 3.086003 -0.899856
v -0.524650 3.086003 -1.949157
vt 0.791667 0.750000
vt 0.875000 0.666667
vt 0.791667 0.666667
vt 0.625000 0.750000
vt 0.708333 0.666667
vt 0.625000 0.666667
vt 0.708333 0.750000
vt 0.708333 0.583333
vt 0.791667 0.500000
vt 0.708333 0.500000
vt 0.625000 0.583333
vt 0.625000 0.500000
vt 0.791667 0.583333
vt 0.875000 0.500000
vt 0.875000 0.583333
vt 0.875000 0.750000
vn 0.0000 -1.0000 0.0000
s off
f 8/1/1 9/2/1 15/3/1
f 3/4/1 13/5/1 12/6/1
f 7/7/1 15/3/1 13/5/1
f 14/8/1 5/9/1 6/10/1
f 11/11/1 6/10/1 4/12/1
f 12/6/1 14/8/1 11/11/1
f 16/13/1 2/14/1 5/9/1
f 15/3/1 10/15/1 16/13/1
f 8/1/1 1/16/1 9/2/1
f 3/4/1 7/7/1 13/5/1
f 7/7/1 8/1/1 15/3/1
f 14/8/1 16/13/1 5/9/1
f 11/11/1 14/8/1 6/10/1
f 12/6/1 13/5/1 14/8/1
f 16/13/1 10/15/1 2/14/1
f 15/3/1 9/2/1 10/15/1
